<?xml version="1.0" encoding="UTF-8" standalone="no"?>
<!DOCTYPE svg PUBLIC "-//W3C//DTD SVG 1.1//EN"
 "http://www.w3.org/Graphics/SVG/1.1/DTD/svg11.dtd">
<!-- Generated by graphviz version 2.38.0 (20140413.2041)
 -->
<!-- Title: deps Pages: 1 -->
<svg width="624pt" height="332pt"
 viewBox="0.00 0.00 624.14 332.00" xmlns="http://www.w3.org/2000/svg" xmlns:xlink="http://www.w3.org/1999/xlink">
<g id="graph0" class="graph" transform="scale(1 1) rotate(0) translate(4 328)">
<title>deps</title>
<polygon fill="white" stroke="none" points="-4,4 -4,-328 620.142,-328 620.142,4 -4,4"/>
<!-- libarpack.so.2 -->
<g id="node1" class="node"><title>libarpack.so.2</title>
<ellipse fill="none" stroke="black" cx="369.196" cy="-306" rx="60.3893" ry="18"/>
<text text-anchor="middle" x="369.196" y="-302.3" font-family="Times,serif" font-size="14.00">libarpack.so.2</text>
</g>
<!-- liblapack.so.3 -->
<g id="node2" class="node"><title>liblapack.so.3</title>
<ellipse fill="none" stroke="black" cx="369.196" cy="-234" rx="59.5901" ry="18"/>
<text text-anchor="middle" x="369.196" y="-230.3" font-family="Times,serif" font-size="14.00">liblapack.so.3</text>
</g>
<!-- libarpack.so.2&#45;&gt;liblapack.so.3 -->
<g id="edge1" class="edge"><title>libarpack.so.2&#45;&gt;liblapack.so.3</title>
<path fill="none" stroke="black" d="M369.196,-287.697C369.196,-279.983 369.196,-270.712 369.196,-262.112"/>
<polygon fill="black" stroke="black" points="372.696,-262.104 369.196,-252.104 365.696,-262.104 372.696,-262.104"/>
</g>
<!-- libblas.so.3 -->
<g id="node3" class="node"><title>libblas.so.3</title>
<ellipse fill="none" stroke="black" cx="369.196" cy="-162" rx="51.1914" ry="18"/>
<text text-anchor="middle" x="369.196" y="-158.3" font-family="Times,serif" font-size="14.00">libblas.so.3</text>
</g>
<!-- libarpack.so.2&#45;&gt;libblas.so.3 -->
<g id="edge2" class="edge"><title>libarpack.so.2&#45;&gt;libblas.so.3</title>
<path fill="none" stroke="black" d="M426.204,-299.836C496.819,-291.822 608.474,-273.16 613.196,-235"/>
<path fill="none" stroke="black" d="M613.196,-233C617.925,-194.779 502.463,-176.119 428.722,-168.125"/>
<polygon fill="black" stroke="black" points="428.921,-164.627 418.611,-167.067 428.192,-171.589 428.921,-164.627"/>
</g>
<!-- libgfortran.so.3 -->
<g id="node4" class="node"><title>libgfortran.so.3</title>
<ellipse fill="none" stroke="black" cx="172.196" cy="-18" rx="65.7887" ry="18"/>
<text text-anchor="middle" x="172.196" y="-14.3" font-family="Times,serif" font-size="14.00">libgfortran.so.3</text>
</g>
<!-- libarpack.so.2&#45;&gt;libgfortran.so.3 -->
<g id="edge3" class="edge"><title>libarpack.so.2&#45;&gt;libgfortran.so.3</title>
<path fill="none" stroke="black" d="M174.196,-161C170.194,-130.147 178.626,-121.794 174.196,-91"/>
<path fill="none" stroke="black" d="M174.196,-89C172.181,-74.9919 171.585,-59.2497 171.534,-46.2467"/>
<polygon fill="black" stroke="black" points="175.035,-46.0894 171.6,-36.0668 168.035,-46.0437 175.035,-46.0894"/>
</g>
<!-- libm.so.6 -->
<g id="node5" class="node"><title>libm.so.6</title>
<ellipse fill="none" stroke="black" cx="44.1961" cy="-18" rx="44.393" ry="18"/>
<text text-anchor="middle" x="44.1961" y="-14.3" font-family="Times,serif" font-size="14.00">libm.so.6</text>
</g>
<!-- libarpack.so.2&#45;&gt;libm.so.6 -->
<g id="edge4" class="edge"><title>libarpack.so.2&#45;&gt;libm.so.6</title>
<path fill="none" stroke="black" d="M325.815,-293.176C271.286,-275.349 183.624,-235.68 174.196,-163"/>
<path fill="none" stroke="black" d="M174.196,-161C160.141,-128.51 161.297,-115.961 136.196,-91"/>
<path fill="none" stroke="black" d="M136.196,-89C117.522,-70.4301 93.8204,-52.5059 75.1513,-39.4443"/>
<polygon fill="black" stroke="black" points="76.9205,-36.413 66.7001,-33.6212 72.9488,-42.1772 76.9205,-36.413"/>
</g>
<!-- libc.so.6 -->
<g id="node6" class="node"><title>libc.so.6</title>
<ellipse fill="none" stroke="black" cx="575.196" cy="-18" rx="40.8928" ry="18"/>
<text text-anchor="middle" x="575.196" y="-14.3" font-family="Times,serif" font-size="14.00">libc.so.6</text>
</g>
<!-- libarpack.so.2&#45;&gt;libc.so.6 -->
<g id="edge5" class="edge"><title>libarpack.so.2&#45;&gt;libc.so.6</title>
<path fill="none" stroke="black" d="M613.196,-233C621.615,-164.962 598.944,-85.71 585.072,-45.4308"/>
<polygon fill="black" stroke="black" points="588.311,-44.0911 581.676,-35.831 581.712,-46.4258 588.311,-44.0911"/>
</g>
<!-- liblapack.so.3&#45;&gt;libblas.so.3 -->
<g id="edge6" class="edge"><title>liblapack.so.3&#45;&gt;libblas.so.3</title>
<path fill="none" stroke="black" d="M369.196,-215.697C369.196,-207.983 369.196,-198.712 369.196,-190.112"/>
<polygon fill="black" stroke="black" points="372.696,-190.104 369.196,-180.104 365.696,-190.104 372.696,-190.104"/>
</g>
<!-- liblapack.so.3&#45;&gt;libgfortran.so.3 -->
<g id="edge8" class="edge"><title>liblapack.so.3&#45;&gt;libgfortran.so.3</title>
<path fill="none" stroke="black" d="M212.196,-161C196.184,-129.429 179.237,-126.039 174.196,-91"/>
</g>
<!-- liblapack.so.3&#45;&gt;libm.so.6 -->
<g id="edge11" class="edge"><title>liblapack.so.3&#45;&gt;libm.so.6</title>
<path fill="none" stroke="black" d="M314.927,-226.204C277.574,-218.198 231.365,-200.795 212.196,-163"/>
<path fill="none" stroke="black" d="M212.196,-161C191.424,-120.044 168.759,-123.381 136.196,-91"/>
</g>
<!-- liblapack.so.3&#45;&gt;libc.so.6 -->
<g id="edge12" class="edge"><title>liblapack.so.3&#45;&gt;libc.so.6</title>
<path fill="none" stroke="black" d="M575.196,-89C572.575,-75.0983 572.338,-59.3658 572.858,-46.3417"/>
<polygon fill="black" stroke="black" points="576.365,-46.3207 573.438,-36.1382 569.376,-45.9235 576.365,-46.3207"/>
</g>
<!-- libatlas.so.3 -->
<g id="node7" class="node"><title>libatlas.so.3</title>
<ellipse fill="none" stroke="black" cx="369.196" cy="-90" rx="53.0913" ry="18"/>
<text text-anchor="middle" x="369.196" y="-86.3" font-family="Times,serif" font-size="14.00">libatlas.so.3</text>
</g>
<!-- liblapack.so.3&#45;&gt;libatlas.so.3 -->
<g id="edge7" class="edge"><title>liblapack.so.3&#45;&gt;libatlas.so.3</title>
<path fill="none" stroke="black" d="M212.196,-161C202.085,-139.145 267.114,-117.026 316.565,-103.662"/>
<polygon fill="black" stroke="black" points="317.76,-106.966 326.534,-101.027 315.971,-100.199 317.76,-106.966"/>
</g>
<!-- libgcc_s.so.1 -->
<g id="node8" class="node"><title>libgcc_s.so.1</title>
<ellipse fill="none" stroke="black" cx="313.196" cy="-18" rx="57.3905" ry="18"/>
<text text-anchor="middle" x="313.196" y="-14.3" font-family="Times,serif" font-size="14.00">libgcc_s.so.1</text>
</g>
<!-- liblapack.so.3&#45;&gt;libgcc_s.so.1 -->
<g id="edge9" class="edge"><title>liblapack.so.3&#45;&gt;libgcc_s.so.1</title>
<path fill="none" stroke="black" d="M212.196,-161C190.558,-114.229 242.435,-66.8291 279.573,-40.3454"/>
<polygon fill="black" stroke="black" points="281.946,-42.96 288.176,-34.3904 277.961,-37.2045 281.946,-42.96"/>
</g>
<!-- libpthread.so.0 -->
<g id="node9" class="node"><title>libpthread.so.0</title>
<ellipse fill="none" stroke="black" cx="452.196" cy="-18" rx="63.8893" ry="18"/>
<text text-anchor="middle" x="452.196" y="-14.3" font-family="Times,serif" font-size="14.00">libpthread.so.0</text>
</g>
<!-- liblapack.so.3&#45;&gt;libpthread.so.0 -->
<g id="edge10" class="edge"><title>liblapack.so.3&#45;&gt;libpthread.so.0</title>
<path fill="none" stroke="black" d="M416.89,-223.068C485.941,-205.983 602.673,-165.475 575.196,-91"/>
<path fill="none" stroke="black" d="M575.196,-89C569.593,-59.2813 540.943,-41.9582 512.705,-31.9812"/>
<polygon fill="black" stroke="black" points="513.77,-28.6473 503.178,-28.8721 511.598,-35.3019 513.77,-28.6473"/>
</g>
<!-- libblas.so.3&#45;&gt;libgfortran.so.3 -->
<g id="edge14" class="edge"><title>libblas.so.3&#45;&gt;libgfortran.so.3</title>
<path fill="none" stroke="black" d="M347.739,-145.533C312.713,-120.286 243.134,-70.133 202.891,-41.1254"/>
<polygon fill="black" stroke="black" points="204.691,-38.1079 194.532,-35.0998 200.597,-43.7865 204.691,-38.1079"/>
</g>
<!-- libblas.so.3&#45;&gt;libm.so.6 -->
<g id="edge17" class="edge"><title>libblas.so.3&#45;&gt;libm.so.6</title>
<path fill="none" stroke="black" d="M337.535,-147.758C312.227,-137.128 275.868,-121.76 244.196,-108 187.4,-83.3246 121.883,-54.0058 81.7537,-35.9505"/>
<polygon fill="black" stroke="black" points="83.1648,-32.7475 72.6095,-31.8334 80.291,-39.1304 83.1648,-32.7475"/>
</g>
<!-- libblas.so.3&#45;&gt;libc.so.6 -->
<g id="edge18" class="edge"><title>libblas.so.3&#45;&gt;libc.so.6</title>
<path fill="none" stroke="black" d="M452.196,-89C459.464,-71.3758 503.118,-49.3967 536.373,-34.8185"/>
<polygon fill="black" stroke="black" points="538.072,-37.898 545.873,-30.729 535.304,-31.4685 538.072,-37.898"/>
</g>
<!-- libblas.so.3&#45;&gt;libatlas.so.3 -->
<g id="edge13" class="edge"><title>libblas.so.3&#45;&gt;libatlas.so.3</title>
<path fill="none" stroke="black" d="M369.196,-143.697C369.196,-135.983 369.196,-126.712 369.196,-118.112"/>
<polygon fill="black" stroke="black" points="372.696,-118.104 369.196,-108.104 365.696,-118.104 372.696,-118.104"/>
</g>
<!-- libblas.so.3&#45;&gt;libgcc_s.so.1 -->
<g id="edge15" class="edge"><title>libblas.so.3&#45;&gt;libgcc_s.so.1</title>
<path fill="none" stroke="black" d="M397.427,-146.69C417.225,-134.841 441.919,-115.92 452.196,-91"/>
<path fill="none" stroke="black" d="M452.196,-89C460.241,-69.4934 406.729,-47.7328 363.779,-33.7296"/>
<polygon fill="black" stroke="black" points="364.837,-30.3934 354.246,-30.6899 362.71,-37.0626 364.837,-30.3934"/>
</g>
<!-- libblas.so.3&#45;&gt;libpthread.so.0 -->
<g id="edge16" class="edge"><title>libblas.so.3&#45;&gt;libpthread.so.0</title>
<path fill="none" stroke="black" d="M452.196,-89C457.717,-75.6138 458.098,-59.5248 456.929,-46.1486"/>
<polygon fill="black" stroke="black" points="460.391,-45.6193 455.727,-36.1061 453.44,-46.4512 460.391,-45.6193"/>
</g>
<!-- libatlas.so.3&#45;&gt;libgfortran.so.3 -->
<g id="edge21" class="edge"><title>libatlas.so.3&#45;&gt;libgfortran.so.3</title>
<path fill="none" stroke="black" d="M333.976,-76.4854C302.313,-65.2344 255.52,-48.6076 220.394,-36.126"/>
<polygon fill="black" stroke="black" points="221.412,-32.7737 210.818,-32.7234 219.069,-39.3697 221.412,-32.7737"/>
</g>
<!-- libatlas.so.3&#45;&gt;libm.so.6 -->
<g id="edge20" class="edge"><title>libatlas.so.3&#45;&gt;libm.so.6</title>
<path fill="none" stroke="black" d="M321.645,-81.4839C267.054,-72.4519 175.014,-55.9876 97.1961,-36 93.8179,-35.1323 90.3388,-34.1714 86.8543,-33.1607"/>
<polygon fill="black" stroke="black" points="87.6843,-29.7554 77.0995,-30.217 85.6619,-36.4569 87.6843,-29.7554"/>
</g>
<!-- libatlas.so.3&#45;&gt;libc.so.6 -->
<g id="edge19" class="edge"><title>libatlas.so.3&#45;&gt;libc.so.6</title>
<path fill="none" stroke="black" d="M405.551,-76.6465C441.601,-64.3965 496.739,-45.6601 534.298,-32.8974"/>
<polygon fill="black" stroke="black" points="535.577,-36.1593 543.92,-29.6279 533.325,-29.5315 535.577,-36.1593"/>
</g>
<!-- libatlas.so.3&#45;&gt;libgcc_s.so.1 -->
<g id="edge22" class="edge"><title>libatlas.so.3&#45;&gt;libgcc_s.so.1</title>
<path fill="none" stroke="black" d="M355.925,-72.411C349.121,-63.9056 340.694,-53.3724 333.127,-43.9138"/>
<polygon fill="black" stroke="black" points="335.741,-41.5785 326.761,-35.9562 330.275,-45.9514 335.741,-41.5785"/>
</g>
<!-- libatlas.so.3&#45;&gt;libpthread.so.0 -->
<g id="edge23" class="edge"><title>libatlas.so.3&#45;&gt;libpthread.so.0</title>
<path fill="none" stroke="black" d="M388.03,-73.1159C399.016,-63.8508 413.058,-52.0077 425.204,-41.7643"/>
<polygon fill="black" stroke="black" points="427.473,-44.4296 432.861,-35.307 422.96,-39.0785 427.473,-44.4296"/>
</g>
</g>
</svg>
