<?xml version="1.0" encoding="UTF-8" standalone="no"?>
<!DOCTYPE svg PUBLIC "-//W3C//DTD SVG 1.1//EN"
 "http://www.w3.org/Graphics/SVG/1.1/DTD/svg11.dtd">
<!-- Generated by graphviz version 2.38.0 (20140413.2041)
 -->
<!-- Title: deps Pages: 1 -->
<svg width="623pt" height="332pt"
 viewBox="0.00 0.00 623.34 332.00" xmlns="http://www.w3.org/2000/svg" xmlns:xlink="http://www.w3.org/1999/xlink">
<g id="graph0" class="graph" transform="scale(1 1) rotate(0) translate(4 328)">
<title>deps</title>
<polygon fill="white" stroke="none" points="-4,4 -4,-328 619.339,-328 619.339,4 -4,4"/>
<!-- libarpack.so.2 -->
<g id="node1" class="node"><title>libarpack.so.2</title>
<ellipse fill="none" stroke="black" cx="296.644" cy="-306" rx="60.3893" ry="18"/>
<text text-anchor="middle" x="296.644" y="-302.3" font-family="Times,serif" font-size="14.00">libarpack.so.2</text>
</g>
<!-- liblapack.so.3 -->
<g id="node2" class="node"><title>liblapack.so.3</title>
<ellipse fill="none" stroke="black" cx="296.644" cy="-234" rx="59.5901" ry="18"/>
<text text-anchor="middle" x="296.644" y="-230.3" font-family="Times,serif" font-size="14.00">liblapack.so.3</text>
</g>
<!-- libarpack.so.2&#45;&gt;liblapack.so.3 -->
<g id="edge1" class="edge"><title>libarpack.so.2&#45;&gt;liblapack.so.3</title>
<path fill="none" stroke="black" d="M296.644,-287.697C296.644,-279.983 296.644,-270.712 296.644,-262.112"/>
<polygon fill="black" stroke="black" points="300.144,-262.104 296.644,-252.104 293.144,-262.104 300.144,-262.104"/>
</g>
<!-- libblas.so.3 -->
<g id="node3" class="node"><title>libblas.so.3</title>
<ellipse fill="none" stroke="black" cx="296.644" cy="-162" rx="51.1914" ry="18"/>
<text text-anchor="middle" x="296.644" y="-158.3" font-family="Times,serif" font-size="14.00">libblas.so.3</text>
</g>
<!-- liblapack.so.3&#45;&gt;libblas.so.3 -->
<g id="edge2" class="edge"><title>liblapack.so.3&#45;&gt;libblas.so.3</title>
<path fill="none" stroke="black" d="M296.644,-215.697C296.644,-207.983 296.644,-198.712 296.644,-190.112"/>
<polygon fill="black" stroke="black" points="300.144,-190.104 296.644,-180.104 293.144,-190.104 300.144,-190.104"/>
</g>
<!-- libatlas.so.3 -->
<g id="node4" class="node"><title>libatlas.so.3</title>
<ellipse fill="none" stroke="black" cx="296.644" cy="-90" rx="53.0913" ry="18"/>
<text text-anchor="middle" x="296.644" y="-86.3" font-family="Times,serif" font-size="14.00">libatlas.so.3</text>
</g>
<!-- libblas.so.3&#45;&gt;libatlas.so.3 -->
<g id="edge3" class="edge"><title>libblas.so.3&#45;&gt;libatlas.so.3</title>
<path fill="none" stroke="black" d="M296.644,-143.697C296.644,-135.983 296.644,-126.712 296.644,-118.112"/>
<polygon fill="black" stroke="black" points="300.144,-118.104 296.644,-108.104 293.144,-118.104 300.144,-118.104"/>
</g>
<!-- libgfortran.so.3 -->
<g id="node5" class="node"><title>libgfortran.so.3</title>
<ellipse fill="none" stroke="black" cx="65.6442" cy="-18" rx="65.7887" ry="18"/>
<text text-anchor="middle" x="65.6442" y="-14.3" font-family="Times,serif" font-size="14.00">libgfortran.so.3</text>
</g>
<!-- libatlas.so.3&#45;&gt;libgfortran.so.3 -->
<g id="edge4" class="edge"><title>libatlas.so.3&#45;&gt;libgfortran.so.3</title>
<path fill="none" stroke="black" d="M258.24,-77.3623C219.796,-65.7127 160.38,-47.7079 117.71,-34.7774"/>
<polygon fill="black" stroke="black" points="118.646,-31.4041 108.061,-31.8536 116.616,-38.1033 118.646,-31.4041"/>
</g>
<!-- libm.so.6 -->
<g id="node6" class="node"><title>libm.so.6</title>
<ellipse fill="none" stroke="black" cx="193.644" cy="-18" rx="44.393" ry="18"/>
<text text-anchor="middle" x="193.644" y="-14.3" font-family="Times,serif" font-size="14.00">libm.so.6</text>
</g>
<!-- libatlas.so.3&#45;&gt;libm.so.6 -->
<g id="edge5" class="edge"><title>libatlas.so.3&#45;&gt;libm.so.6</title>
<path fill="none" stroke="black" d="M274.04,-73.6382C259.351,-63.6548 240.023,-50.5197 224,-39.6302"/>
<polygon fill="black" stroke="black" points="225.727,-36.572 215.489,-33.8459 221.792,-42.3616 225.727,-36.572"/>
</g>
<!-- libc.so.6 -->
<g id="node7" class="node"><title>libc.so.6</title>
<ellipse fill="none" stroke="black" cx="296.644" cy="-18" rx="40.8928" ry="18"/>
<text text-anchor="middle" x="296.644" y="-14.3" font-family="Times,serif" font-size="14.00">libc.so.6</text>
</g>
<!-- libatlas.so.3&#45;&gt;libc.so.6 -->
<g id="edge6" class="edge"><title>libatlas.so.3&#45;&gt;libc.so.6</title>
<path fill="none" stroke="black" d="M296.644,-71.6966C296.644,-63.9827 296.644,-54.7125 296.644,-46.1124"/>
<polygon fill="black" stroke="black" points="300.144,-46.1043 296.644,-36.1043 293.144,-46.1044 300.144,-46.1043"/>
</g>
<!-- libgcc_s.so.1 -->
<g id="node8" class="node"><title>libgcc_s.so.1</title>
<ellipse fill="none" stroke="black" cx="412.644" cy="-18" rx="57.3905" ry="18"/>
<text text-anchor="middle" x="412.644" y="-14.3" font-family="Times,serif" font-size="14.00">libgcc_s.so.1</text>
</g>
<!-- libatlas.so.3&#45;&gt;libgcc_s.so.1 -->
<g id="edge7" class="edge"><title>libatlas.so.3&#45;&gt;libgcc_s.so.1</title>
<path fill="none" stroke="black" d="M321.529,-73.9832C338.234,-63.9025 360.451,-50.4956 378.765,-39.4444"/>
<polygon fill="black" stroke="black" points="380.647,-42.3968 387.4,-34.2335 377.03,-36.4035 380.647,-42.3968"/>
</g>
<!-- libpthread.so.0 -->
<g id="node9" class="node"><title>libpthread.so.0</title>
<ellipse fill="none" stroke="black" cx="551.644" cy="-18" rx="63.8893" ry="18"/>
<text text-anchor="middle" x="551.644" y="-14.3" font-family="Times,serif" font-size="14.00">libpthread.so.0</text>
</g>
<!-- libatlas.so.3&#45;&gt;libpthread.so.0 -->
<g id="edge8" class="edge"><title>libatlas.so.3&#45;&gt;libpthread.so.0</title>
<path fill="none" stroke="black" d="M336.768,-77.9855C380.111,-66.0877 449.408,-47.0647 497.542,-33.8516"/>
<polygon fill="black" stroke="black" points="498.758,-37.1472 507.475,-31.1248 496.905,-30.3969 498.758,-37.1472"/>
</g>
</g>
</svg>
